<?xml version="1.0" encoding="UTF-8"?>
<!DOCTYPE svg PUBLIC "-//W3C//DTD SVG 1.1//EN" "http://www.w3.org/Graphics/SVG/1.1/DTD/svg11.dtd">
<!-- Creator: CorelDRAW -->
<svg xmlns="http://www.w3.org/2000/svg" xml:space="preserve" width="18.1705mm" height="18.1705mm" shape-rendering="geometricPrecision" text-rendering="geometricPrecision" image-rendering="optimizeQuality" fill-rule="evenodd" clip-rule="evenodd"
viewBox="0 0 2.17679 2.17679"
 xmlns:xlink="http://www.w3.org/1999/xlink">
 <g id="Layer_x0020_1">
  <metadata id="CorelCorpID_0Corel-Layer"/>
  <polygon fill="#3F4446" points="0.485985,0.273367 0.496108,0.273367 0.597349,0.273367 0.759352,0.273367 0.799844,0.263244 0.799844,0.202495 0.496108,0.202495 0.192372,0.202495 0.192372,0.273367 "/>
  <path fill="#868483" d="M0.496108 0.334117l0.161991 0.0101229 0.0101229 -0.0101229 0.0202579 0 0 -0.0303808 -0.0607496 0c-0.0280088,0 -0.024355,-0.00781084 -0.0303808,-0.0303688l-0.101241 0 0 0.0607496z"/>
  <path fill="#8980B2" d="M0.496108 0.202495l0 -0.0405037 1.51869 0 0 1.85281 -1.51869 0 -0.0101229 -0.62773 -0.293613 0 -0.0101229 -0.0708726 0.0249779 -0.000670869 0.0357597 -0.211947 0.0101349 0 0.0101229 -0.0303688 0.0202459 -0.0506267 0.0202459 -0.0405037 0.0405037 -0.0404918 0.0202459 -0.0202459 0.0607496 -0.0405037c0.0155019,-0.0134773 0.0506267,-0.0435586 0.0506267,-0.0708726l0 -0.0202459c0,-0.0308959 -0.00972761,-0.0408631 -0.0202579,-0.0607496l-0.0708726 -0.0506267 -0.0607376 -0.0506147 -0.0303808 -0.0405037 -0.0404918 -0.101241 -0.0101349 -0.0202579c0.0426961,-0.0637446 0.142284,-0.139493 0.242999,-0.141745l0 -0.0506147 -0.293613 0 0 -0.0708726 0.303736 0zm1.68068 1.9743l0 -2.17679 -2.17679 0 0 2.17679 2.17679 0z"/>
  <path fill="#7D7A79" d="M0.68848 0.334117l0.0708726 0 0 -0.0607496 -0.162003 0c0.00602585,0.022558 0.002372,0.0303688 0.0303808,0.0303688l0.0607496 0 0 0.0303808z"/>
  <polygon fill="#73706F" points="0.759352,0.273367 0.759352,0.334117 0.769475,0.334117 0.901098,0.334117 0.931466,0.323982 0.931466,0.263244 0.799844,0.263244 "/>
  <polygon fill="#514A65" points="0.749217,0.465727 0.769475,0.334117 0.759352,0.334117 0.68848,0.334117 0.668222,0.334117 0.688815,0.393321 0.749217,0.40499 0.749217,0.435358 "/>
  <polygon fill="#979594" points="0.496108,0.40499 0.658099,0.40499 0.658099,0.34424 0.496108,0.334117 "/>
  <polygon fill="#A4A2A1" points="0.496108,0.435358 0.658099,0.445481 0.658099,0.425235 0.658099,0.40499 0.496108,0.40499 "/>
  <path fill="#A199C3" d="M0.253121 0.485985l0.0404918 0.101241 0 -0.0303688 -0.0064092 -0.010099 0.192084 -0.121954 0.00669672 0.0105542 0 -0.0708726c-0.104919,0.00873328 -0.158098,0.0819299 -0.232864,0.121499z"/>
  <polygon fill="#B0AFAE" points="0.496108,0.455604 0.496108,0.485985 0.568202,0.484512 0.598739,0.499918 0.718849,0.5366 0.728972,0.5366 0.728972,0.506231 0.658099,0.496108 0.658099,0.465727 0.658099,0.445481 0.496108,0.435358 "/>
  <path fill="#8A8696" d="M0.658099 0.445481l0 0.0202459 0 0.0303808 0.0708726 0.0101229 0.0101229 0 0 -0.0303688c-0.0620315,-0.0051633 -0.054592,-0.0126387 -0.0809955,-0.0506267l0 0.0202459z"/>
  <path fill="#938ABA" d="M0.253121 0.485985c0.074766,-0.0395693 0.127944,-0.112766 0.232864,-0.121499l0 -0.0405037c-0.100714,0.0022522 -0.200302,0.0780006 -0.242999,0.141745l0.0101349 0.0202579z"/>
  <polygon fill="#3B3253" points="0.749217,0.465727 0.749217,0.485985 0.890963,0.485985 0.901098,0.334117 0.769475,0.334117 "/>
  <polygon fill="#7366A1" points="0.890963,0.485985 0.890963,0.496108 1.88318,0.496108 1.88318,0.334117 0.901098,0.334117 "/>
  <path fill="#67607C" d="M0.658099 0.40499l0 0.0202459c0.0264035,0.037988 0.018964,0.0454634 0.0809955,0.0506267l0 0.0303688 0.151868 -0.0101229 0 -0.0101229 -0.141745 0 0 -0.0202579 0 -0.0303688 0 -0.0303688 -0.0604022 -0.0116683 -0.0205933 -0.0592042 -0.0101229 0.0101229 0 0.0607496z"/>
  <path fill="#AEA8CB" d="M0.485985 0.323982l0 0.0405037 0 0.0708726 -0.00669672 -0.0105542 -0.192084 0.121954 0.0064092 0.010099 0 0.0303688 0.0303808 0.0405037c0.0174546,-0.0653978 0.10589,-0.101948 0.161991,-0.131622l0.0101229 -0.0405037 0 -0.0202459 0 -0.0303688 0 -0.0708726 0 -0.0607496 -0.0101229 0 0 0.0506147z"/>
  <polygon fill="#C0BFBE" points="0.496108,0.566981 0.68848,0.597349 0.718849,0.5366 0.598739,0.499918 0.568202,0.484512 0.496108,0.485985 "/>
  <path fill="#7F7C7B" d="M0.739095 0.506231l-0.0101229 0 0 0.0303688 0.0202459 -0.0101229c0.0616721,0.0295901 0.0643556,-0.00515132 0.040971,0.0596834l0.0602824 0.031435 0.0404918 -0.121487 -0.151868 0.0101229z"/>
  <polygon fill="#CECDCD" points="0.496108,0.607472 0.496108,0.637853 0.658099,0.637853 0.68848,0.597349 0.496108,0.566981 "/>
  <path fill="#BEB9D5" d="M0.323994 0.62773l0.0607376 0.0506147 0.101253 -0.0911185 0 -0.0911185c-0.0561015,0.029674 -0.144536,0.0662244 -0.161991,0.131622z"/>
  <polygon fill="#D0CDDF" points="0.485985,0.496108 0.485985,0.587226 0.384732,0.678345 0.455604,0.728972 0.484931,0.70869 0.496108,0.607472 0.496108,0.566981 0.496108,0.485985 0.496108,0.455604 "/>
  <polygon fill="#D9D8D7" points="0.496108,0.637853 0.495892,0.673805 0.607472,0.678345 0.658099,0.647976 0.658099,0.637853 "/>
  <path fill="#838180" d="M0.728972 0.5366l-0.0101229 0 -0.0303688 0.0607496 -0.0303808 0.0405037 0 0.0101229c0.0807439,0.0188083 0.0521841,0.0450561 0.101253,0.0809955l0.0911185 -0.111376 -0.0602824 -0.031435c0.0233846,-0.0648347 0.0207011,-0.0300933 -0.040971,-0.0596834l-0.0202459 0.0101229z"/>
  <path fill="#E0DEEB" d="M0.455604 0.728972c0.0105303,0.0198865 0.0202579,0.0298537 0.0202579,0.0607496l0 0.0202459c0,0.027314 -0.0351248,0.0573953 -0.0506267,0.0708726l0.0594678 0.0810913 0.0114048 0.0606538 0 -0.0506267 0.00202459 -0.245011 0.0182213 0.0222705 0.0506267 -0.0404918 0.0404918 -0.0303808 -0.11158 -0.00454035 0.000215637 -0.0359514 0 -0.0303808 -0.0111772 0.101217 -0.0293266 0.0202818z"/>
  <polygon fill="#544C6C" points="0.658099,0.809967 0.668222,0.809967 0.698603,0.769475 0.658099,0.769475 "/>
  <path fill="#8A8887" d="M0.607472 0.678345l-0.0404918 0.0303808 0.0713757 0.112886 0.0197427 -0.0116444 0 -0.0404918 0.0405037 0 0.0101229 0 0.0506267 -0.0405037c-0.0490693,-0.0359394 -0.0205094,-0.0621872 -0.101253,-0.0809955l-0.0506267 0.0303688z"/>
  <path fill="#D6D6D5" d="M0.536612 0.850471l0.0506147 0.0404918 0.0202459 0 0 -0.0404918c0,-0.0544602 -0.0362509,-0.080708 -0.0809955,-0.0911304l0 0.0405037c0,0.0273499 0.00483984,0.027913 0.0101349,0.0506267z"/>
  <polygon fill="#6D609E" points="0.668222,0.809967 0.658099,0.901086 0.68848,0.921343 1.87306,0.921343 1.87306,0.769475 0.708726,0.769475 0.698603,0.769475 "/>
  <polygon fill="#5F5974" points="0.68848,0.921343 0.658099,0.901086 0.658375,0.932892 "/>
  <polygon fill="whitesmoke" points="0.496108,0.971958 0.597349,0.901086 0.587226,0.890963 0.536612,0.850471 0.516354,0.840348 0.516354,0.749217 0.498133,0.726947 "/>
  <path fill="#CECAE0" d="M0.364486 0.921343c0.04151,0.0784438 0.0430554,0.0799772 0.121499,0.121487l0 0.0202579 0.0101229 0.0506147 0 -0.0202459 0 -0.0708726 -0.0114048 -0.0606538 -0.0594678 -0.0810913 -0.0607496 0.0405037z"/>
  <path fill="#C5C0DA" d="M0.34424 0.941589l-0.000922446 0.0211923 0.112287 0.100307 0.0303808 0 0 -0.0202579c-0.0784438,-0.04151 -0.0799892,-0.0430435 -0.121499,-0.121487l-0.0202459 0.0202459z"/>
  <polygon fill="#DEDEDD" points="0.496108,0.971958 0.496108,1.02258 0.68848,0.992216 0.597349,0.901086 "/>
  <path fill="#BBB6D4" d="M0.303736 0.982081c0.0624627,0.0932868 0.0827565,0.0992288 0.182249,0.15188l0 0.0404918 0.0101229 0.0303808 0 -0.0101349 0 -0.0506147 0 -0.0303808 -0.0101229 -0.0506147 -0.0303808 0 -0.112287 -0.100307 0.000922446 -0.0211923 -0.0405037 0.0404918z"/>
  <path fill="#D2D2D1" d="M0.496108 1.02258l0 0.0708726c0.0227017,-0.00529508 0.0232768,-0.0101229 0.0506267,-0.0101229l0.121487 0 -0.00727175 -0.00799053 0.0477755 -0.0426362 -0.000539092 -0.0295063 -0.0197068 -0.0109855 -0.192372 0.0303688z"/>
  <path fill="#C8C7C7" d="M0.496108 1.09346l0 0.0202459 0 0.0303808 0.0521242 -0.00427679 -0.0318783 -0.0159811 0.130496 -0.0026715 0.0821216 -0.0378203 -0.0202459 -0.0506267 -0.0477755 0.0426362 0.00727175 0.00799053 -0.121487 0c-0.0273499,0 -0.0279249,0.00482786 -0.0506267,0.0101229z"/>
  <path fill="#B0AACD" d="M0.28349 1.02258c0.0457629,0.0683448 0.111268,0.130616 0.202495,0.151868l0 -0.0404918c-0.0994923,-0.0526513 -0.119786,-0.0585933 -0.182249,-0.15188l-0.0202459 0.0405037z"/>
  <polygon fill="#C0BFBE" points="0.496108,1.14408 0.496108,1.1947 0.678345,1.17445 0.678345,1.14408 0.708726,1.14408 0.708726,1.12383 0.739095,1.12383 0.728972,1.08333 0.64685,1.12115 0.516354,1.12383 0.548232,1.13981 "/>
  <path fill="#A9A3C6" d="M0.263244 1.07321c0.0833555,0.0558139 0.0885668,0.110478 0.222741,0.141745l0 0.0506147 0 0.0405037 0 0.0101229 0.0101229 0 0 -0.0708726 0 -0.0404918 -0.0101229 -0.0303808c-0.0912263,-0.0212522 -0.156732,-0.0835233 -0.202495,-0.151868l-0.0202459 0.0506267z"/>
  <path fill="#918F98" d="M0.516354 0.749217l0 0.0911304 0.0202579 0.0101229c-0.00529508,-0.0227137 -0.0101349,-0.0232768 -0.0101349,-0.0506267l0 -0.0405037c0.0447446,0.0104224 0.0809955,0.0366702 0.0809955,0.0911304l0 0.0404918 -0.0202459 0 0.0101229 0.0101229 0.0911304 0.0911304 0.0197068 0.0109855 0.000539092 0.0295063 0.0202459 0.0506267 0.0101229 0.0404918 0.0202579 0.0810075 0.13161 0c-0.0299376,-0.0624028 -0.0164123,-0.091969 -0.0665119,-0.166352 -0.0400725,-0.0594917 -0.087261,-0.0748019 -0.135971,-0.117139l1.18458 0 0 -0.151868 0 0.151868 -1.18458 0 -0.0301053 0.0115485 -0.000275536 -0.0318064 0.0101229 -0.0911185 -0.0101229 0 -0.0197427 0.0116444 -0.0713757 -0.112886 -0.0506267 0.0404918z"/>
  <path fill="#887FB1" d="M0.485985 1.3162l0 -0.0101229c-0.125309,0 -0.218176,-0.0488058 -0.242999,-0.141745l-0.0101229 0.151868 0.253121 0z"/>
  <polygon fill="#B7B5B5" points="0.496108,1.1947 0.496108,1.20483 0.496108,1.24533 0.658099,1.22508 0.658099,1.20483 0.759352,1.20483 0.739095,1.12383 0.708726,1.12383 0.708726,1.14408 0.678345,1.14408 0.678345,1.17445 "/>
  <path fill="#938ABA" d="M0.242987 1.16433c0.0248222,0.0929394 0.11769,0.141745 0.242999,0.141745l0 -0.0405037c-0.104919,-0.0087213 -0.158098,-0.0819299 -0.232864,-0.121487l0 -0.0405037 -0.0101349 0 0 0.0607496z"/>
  <path fill="#9E97C1" d="M0.253121 1.10358l0 0.0405037c0.074766,0.0395573 0.127944,0.112766 0.232864,0.121487l0 -0.0506147c-0.134174,-0.0312673 -0.139385,-0.0859312 -0.222741,-0.141745l-0.0101229 0.0303688z"/>
  <path fill="#7B748D" d="M0.658099 1.22508l0 0.0911185 0.0101229 0 0 -0.0708726c0.0419293,-0.00976355 0.0388146,-0.00109016 0.0506267,-0.0303688l0.0405037 0 0 -0.0101229 -0.101253 0 0 0.0202459z"/>
  <path fill="#60577E" d="M0.668222 1.3162l0.0911304 0 0 -0.101241 -0.0405037 0c-0.0118121,0.0292787 -0.00869734,0.0206053 -0.0506267,0.0303688l0 0.0708726z"/>
  <polygon fill="#AFADAD" points="0.496108,1.24533 0.496108,1.3162 0.658099,1.3162 0.658099,1.22508 "/>
  <polygon fill="#544C6C" points="0.192372,1.38707 0.192372,1.32632 0.799844,1.32632 0.799844,1.36682 0.901098,1.36682 0.890963,1.20483 0.759352,1.20483 0.759352,1.21496 0.759352,1.3162 0.668222,1.3162 0.658099,1.3162 0.496108,1.3162 0.485985,1.3162 0.232864,1.3162 0.242987,1.16433 0.242987,1.10358 0.207227,1.31553 0.182249,1.3162 "/>
  <polygon fill="#6D609E" points="0.901098,1.36682 1.88318,1.36682 1.88318,1.20483 0.890963,1.20483 "/>
  <polygon fill="#3F4446" points="0.192372,1.38707 0.485985,1.38707 0.577103,1.38707 0.749217,1.38707 0.799844,1.38707 0.799844,1.36682 0.799844,1.32632 0.192372,1.32632 "/>
  <polygon fill="#A4A2A1" points="0.779598,1.4377 0.749217,1.38707 0.577103,1.38707 0.607472,1.4377 "/>
  <polygon fill="#9B9999" points="0.749217,1.38707 0.779598,1.4377 0.931466,1.4377 0.931191,1.37837 0.901098,1.36682 0.799844,1.36682 0.799844,1.38707 "/>
  <polygon fill="#ADAAB3" points="0.496108,2.0148 0.496108,1.44822 0.931466,1.4377 0.779598,1.4377 0.607472,1.4377 0.577103,1.38707 0.485985,1.38707 "/>
  <polygon fill="#6D609E" points="0.658099,1.80218 1.88318,1.80218 1.88318,1.64019 0.658099,1.64019 "/>
  <path fill="#DEDDDD" d="M0.658099 1.64019l1.22508 0 0 0.161991 -1.22508 0 0 -0.161991zm-0.161991 -1.4377l0.303736 0 0 0.0607496 0.131622 0 0 0.0607376 -0.0303688 0.0101349 0.982081 0 0 0.161991 -0.992216 0 -0.0404918 0.121487 -0.0911185 0.111376 -0.0506267 0.0405037 1.16433 0 0 0.151868 -1.18458 0c0.0487099,0.0423367 0.0958984,0.0576469 0.135971,0.117139 0.0500996,0.0743827 0.0365744,0.103949 0.0665119,0.166352l0.992216 0 0 0.161991 -0.982081 0 0.0300933 0.0115485 0.000275536 0.059324 -0.435358 0.0105183 0 0.566585 1.51869 0 0 -1.85281 -1.51869 0 0 0.0405037z"/>
 </g>
</svg>
