<?xml version="1.0" encoding="UTF-8" standalone="no"?>
<!-- Created with Inkscape (http://www.inkscape.org/) -->

<svg
   xmlns:svg="http://www.w3.org/2000/svg"
   xmlns="http://www.w3.org/2000/svg"
   xmlns:xlink="http://www.w3.org/1999/xlink"
   version="1.1"
   width="466"
   height="500"
   id="svg2">
  <defs
     id="defs4">
    <linearGradient
       id="linearGradient3807">
      <stop
         id="stop3809"
         style="stop-color:#000000;stop-opacity:1"
         offset="0" />
      <stop
         id="stop3811"
         style="stop-color:#ededed;stop-opacity:1"
         offset="1" />
    </linearGradient>
    <linearGradient
       id="linearGradient3747">
      <stop
         id="stop3749"
         style="stop-color:#ffffff;stop-opacity:1"
         offset="0" />
      <stop
         id="stop3751"
         style="stop-color:#ffffff;stop-opacity:0.28318584"
         offset="1" />
    </linearGradient>
    <linearGradient
       x1="313.4856"
       y1="120.13223"
       x2="407.871"
       y2="137.12773"
       id="linearGradient3753"
       xlink:href="#linearGradient3747"
       gradientUnits="userSpaceOnUse"
       gradientTransform="translate(-9.2807761,-6.0681998)" />
    <linearGradient
       x1="313.4856"
       y1="120.13223"
       x2="426.36499"
       y2="145.49406"
       id="linearGradient3757"
       xlink:href="#linearGradient3747"
       gradientUnits="userSpaceOnUse"
       gradientTransform="matrix(0.80778535,0.06799981,-0.06799981,0.80778535,92.948834,-30.386571)" />
    <linearGradient
       x1="313.4856"
       y1="120.13223"
       x2="407.871"
       y2="137.12773"
       id="linearGradient3761"
       xlink:href="#linearGradient3747"
       gradientUnits="userSpaceOnUse"
       gradientTransform="translate(-41.588467,13.114492)" />
    <linearGradient
       x1="313.4856"
       y1="120.13223"
       x2="407.871"
       y2="137.12773"
       id="linearGradient3765"
       xlink:href="#linearGradient3747"
       gradientUnits="userSpaceOnUse"
       gradientTransform="matrix(0.99612902,-0.08790323,0.08790323,0.99612902,-76.601193,68.821847)" />
    <linearGradient
       x1="313.4856"
       y1="120.13223"
       x2="407.871"
       y2="137.12773"
       id="linearGradient3769"
       xlink:href="#linearGradient3747"
       gradientUnits="userSpaceOnUse"
       gradientTransform="matrix(1.2078683,-0.14359658,0.14359658,1.2078683,-185.09348,83.210813)" />
    <linearGradient
       x1="313.4856"
       y1="120.13223"
       x2="407.871"
       y2="137.12773"
       id="linearGradient3773"
       xlink:href="#linearGradient3747"
       gradientUnits="userSpaceOnUse"
       gradientTransform="matrix(1.1948042,-0.22805408,0.22805408,1.1948042,-219.89779,144.9503)" />
    <linearGradient
       x1="313.4856"
       y1="120.13223"
       x2="407.871"
       y2="137.12773"
       id="linearGradient3777"
       xlink:href="#linearGradient3747"
       gradientUnits="userSpaceOnUse"
       gradientTransform="matrix(1.1844389,-0.27689399,0.27689399,1.1844389,-255.67758,197.39807)" />
    <linearGradient
       x1="313.4856"
       y1="120.13223"
       x2="407.871"
       y2="137.12773"
       id="linearGradient3781"
       xlink:href="#linearGradient3747"
       gradientUnits="userSpaceOnUse"
       gradientTransform="matrix(0.99274978,-0.2265088,0.2265088,0.99274978,-215.13931,227.85096)" />
    <linearGradient
       x1="313.4856"
       y1="120.13223"
       x2="407.871"
       y2="137.12773"
       id="linearGradient3785"
       xlink:href="#linearGradient3747"
       gradientUnits="userSpaceOnUse"
       gradientTransform="matrix(0.98043806,-0.27495376,0.27495376,0.98043806,-234.50997,273.33617)" />
    <linearGradient
       x1="313.4856"
       y1="120.13223"
       x2="407.871"
       y2="137.12773"
       id="linearGradient3789"
       xlink:href="#linearGradient3747"
       gradientUnits="userSpaceOnUse"
       gradientTransform="matrix(0.98626771,-0.25324763,0.25324763,0.98626771,-254.73176,295.19008)" />
    <linearGradient
       x1="313.4856"
       y1="120.13223"
       x2="407.871"
       y2="137.12773"
       id="linearGradient3793"
       xlink:href="#linearGradient3747"
       gradientUnits="userSpaceOnUse"
       gradientTransform="matrix(0.97086507,-0.30704948,0.30704948,0.97086507,-271.69778,343.9017)" />
    <linearGradient
       x1="313.4856"
       y1="120.13223"
       x2="426.36499"
       y2="145.49406"
       id="linearGradient3797"
       xlink:href="#linearGradient3747"
       gradientUnits="userSpaceOnUse"
       gradientTransform="matrix(0.53272633,-0.04287208,0.04287208,0.53272633,208.68605,27.544796)" />
    <linearGradient
       x1="423.25778"
       y1="46.229294"
       x2="77.674019"
       y2="318.94135"
       id="linearGradient3813"
       xlink:href="#linearGradient3807"
       gradientUnits="userSpaceOnUse" />
    <linearGradient
       x1="312.32178"
       y1="127.23269"
       x2="426.36499"
       y2="145.49406"
       id="linearGradient3881"
       xlink:href="#linearGradient3747"
       gradientUnits="userSpaceOnUse"
       gradientTransform="matrix(-0.19023703,-0.24662968,0.24662968,-0.19023703,347.45474,193.30445)" />
    <linearGradient
       x1="312.32178"
       y1="127.23269"
       x2="426.36499"
       y2="145.49406"
       id="linearGradient3885"
       xlink:href="#linearGradient3747"
       gradientUnits="userSpaceOnUse"
       gradientTransform="matrix(-0.17547051,-0.20943528,0.20943528,-0.17547051,382.40354,164.70846)" />
    <linearGradient
       x1="312.32178"
       y1="127.23269"
       x2="426.36499"
       y2="145.49406"
       id="linearGradient3889"
       xlink:href="#linearGradient3747"
       gradientUnits="userSpaceOnUse"
       gradientTransform="matrix(-0.17702623,-0.30190773,0.30190773,-0.17702623,301.35343,230.30446)" />
    <linearGradient
       x1="312.32178"
       y1="127.23269"
       x2="426.36499"
       y2="145.49406"
       id="linearGradient3893"
       xlink:href="#linearGradient3747"
       gradientUnits="userSpaceOnUse"
       gradientTransform="matrix(-0.15754906,-0.26869057,0.26869057,-0.15754906,268.81314,240.0051)" />
    <linearGradient
       x1="324.37042"
       y1="124.82491"
       x2="426.36499"
       y2="145.49406"
       id="linearGradient3897"
       xlink:href="#linearGradient3747"
       gradientUnits="userSpaceOnUse"
       gradientTransform="matrix(-0.1147517,-0.28956584,0.28956584,-0.1147517,221.0918,267.76447)" />
    <linearGradient
       x1="312.32178"
       y1="127.23269"
       x2="426.36499"
       y2="145.49406"
       id="linearGradient3924"
       xlink:href="#linearGradient3747"
       gradientUnits="userSpaceOnUse"
       gradientTransform="matrix(-0.09695032,-0.16534302,0.16534302,-0.09695032,166.92962,284.48216)" />
    <linearGradient
       x1="334.60385"
       y1="121.27324"
       x2="426.36499"
       y2="145.49406"
       id="linearGradient3931"
       xlink:href="#linearGradient3747"
       gradientUnits="userSpaceOnUse"
       gradientTransform="matrix(-0.15754906,-0.26869057,0.26869057,-0.15754906,208.66745,296.32932)" />
  </defs>
  <path
     d="m 251.305,394.23062 c -22.24214,3.07166 -35.76593,22.99219 -51.60014,36.68369 -16.61979,14.37077 -28.57888,40.90408 -52.66114,41.10765 -19.35228,0.16358 -27.47163,-22.30881 -41.37036,-33.25538 -12.738587,-10.03284 -30.901815,-15.3277 -45.278119,-5.50969 -15.921932,10.87357 -31.050332,23.62192 -43.922893,37.09175 -10.3168901,10.79558 18.634698,3.64617 25.702003,1.70854 15.825143,-4.33876 26.152871,-26.28003 43.727957,-20.68653 24.347622,7.74894 34.504442,40.01969 61.450132,43.62223 19.0975,2.55326 29.64692,-16.80332 42.96554,-26.8097 17.72133,-13.31417 27.30477,-35.55547 47.14364,-45.80732 19.04682,-9.84254 11.32886,20.10169 11.1056,30.01083 -0.36419,16.16466 16.75462,28.60943 31.25113,22.04897 34.77978,-15.73975 67.38269,-37.09023 103.02227,-50.33791 13.61559,-5.06109 28.17522,21.87977 39.03272,6.77141 10.16198,-14.14054 -11.55596,-22.72337 -23.38281,-25.59568 -20.59777,-5.00244 -40.46813,3.74367 -56.84155,15.46498 -19.66628,14.07858 -40.09262,34.08975 -65.31157,33.05584 -23.73665,-0.97313 -7.06521,-32.87209 -12.29693,-48.29286 -1.98258,-5.84375 -5.9199,-12.21206 -12.73548,-11.27082 z"
     id="path3843"
     style="font-size:medium;font-style:normal;font-variant:normal;font-weight:normal;font-stretch:normal;text-indent:0;text-align:start;text-decoration:none;line-height:normal;letter-spacing:normal;word-spacing:normal;text-transform:none;direction:ltr;block-progression:tb;writing-mode:lr-tb;text-anchor:start;color:#000000;fill:#000000;fill-opacity:1;stroke:none;stroke-width:15;marker:none;visibility:visible;display:inline;overflow:visible;enable-background:accumulate;font-family:AlArabiya;-inkscape-font-specification:AlArabiya" />
  <path
     d="m 60.576921,378.84616 c 9.591345,-5.55289 115.096149,-18.17308 115.096149,-18.17308 0,0 12.00446,-15.60579 29.88131,-36.69369 1.60431,-1.89248 -33.14092,-3.77344 -36.24212,-5.4945 6.17598,-4.68353 43.05023,-2.4678 43.99744,-3.56285 28.21354,-32.61752 67.06407,-73.87374 97.65183,-92.56626 54.51922,-33.31731 147.40384,-96.92307 147.40384,-96.92307 0.52738,-41.147106 -12.95853,-76.582358 -1.54722,-120.4504455 0,0 -49.94317,25.5466005 -80.23163,34.6331385 -30.28846,9.086538 -50.36318,5.306327 -87.83653,22.211538 C 186.78379,126.87393 103.29043,244.00325 54.461536,356.59616 c -2.019231,12.11538 7.125,20.23077 6.115385,22.25 z m -9.84375,11.3774 c 32.07488,-8.80466 42.204181,0.55504 65.372589,-2.52404 -25.638961,8.95352 -45.96798,13.52311 -74.206723,13.37741"
     id="path3741"
     style="color:#000000;fill:#ececec;stroke:#000000;stroke-width:4;stroke-linecap:butt;stroke-linejoin:miter;stroke-miterlimit:4;stroke-opacity:1;stroke-dasharray:none;stroke-dashoffset:0;marker:none;visibility:visible;display:inline;overflow:visible;enable-background:accumulate" />
  <path
     d="m 165.65534,216.90728 -17.1799,-20.83769 6.63663,25.1275"
     id="path3922"
     style="color:#000000;fill:url(#linearGradient3924);fill-opacity:1;stroke:none;stroke-width:15;marker:none;visibility:visible;display:inline;overflow:visible;enable-background:accumulate" />
  <path
     d="m 297.13748,115.32605 115.09615,19.18269 -97.42789,-29.78366"
     id="path3745"
     style="color:#000000;fill:url(#linearGradient3753);fill-opacity:1;stroke:none;stroke-width:15;marker:none;visibility:visible;display:inline;overflow:visible;enable-background:accumulate" />
  <path
     d="M 332.21423,88.51031 443.49867,121.36433 347.03938,80.521834"
     id="path3755"
     style="color:#000000;fill:url(#linearGradient3757);fill-opacity:1;stroke:none;stroke-width:15;marker:none;visibility:visible;display:inline;overflow:visible;enable-background:accumulate" />
  <path
     d="m 261.29614,138.5472 118.6298,15.14423 -105.50481,-26.75481"
     id="path3759"
     style="color:#000000;fill:url(#linearGradient3761);fill-opacity:1;stroke:none;stroke-width:15;marker:none;visibility:visible;display:inline;overflow:visible;enable-background:accumulate" />
  <path
     d="m 233.24418,164.83025 122.39453,6.97188 -107.44824,-17.37702"
     id="path3763"
     style="color:#000000;fill:url(#linearGradient3765);fill-opacity:1;stroke:none;stroke-width:15;marker:none;visibility:visible;display:inline;overflow:visible;enable-background:accumulate" />
  <path
     d="m 199.42237,190.88654 144.80439,1.59467 -131.27781,-17.16616"
     id="path3767"
     style="color:#000000;fill:url(#linearGradient3769);fill-opacity:1;stroke:none;stroke-width:15;marker:none;visibility:visible;display:inline;overflow:visible;enable-background:accumulate" />
  <path
     d="m 173.89649,220.11272 141.89204,-3.32858 -130.1399,-10.43"
     id="path3771"
     style="color:#000000;fill:url(#linearGradient3773);fill-opacity:1;stroke:none;stroke-width:15;marker:none;visibility:visible;display:inline;overflow:visible;enable-background:accumulate" />
  <path
     d="m 140.86946,256.33676 141.63592,-9.1487 -131.36262,-6.51425"
     id="path3775"
     style="color:#000000;fill:url(#linearGradient3777);fill-opacity:1;stroke:none;stroke-width:15;marker:none;visibility:visible;display:inline;overflow:visible;enable-background:accumulate" />
  <path
     d="M 112.51577,285.01632 235.16095,271.93196 124.36087,269.26889"
     id="path3779"
     style="color:#000000;fill:url(#linearGradient3781);fill-opacity:1;stroke:none;stroke-width:15;marker:none;visibility:visible;display:inline;overflow:visible;enable-background:accumulate" />
  <path
     d="M 99.291969,308.10485 217.41096,295.26618 106.6137,298.04368"
     id="path3783"
     style="color:#000000;fill:url(#linearGradient3785);fill-opacity:1;stroke:none;stroke-width:15;marker:none;visibility:visible;display:inline;overflow:visible;enable-background:accumulate" />
  <path
     d="M 78.221495,337.31759 196.59507,327.08904 85.763499,327.42048"
     id="path3787"
     style="color:#000000;fill:url(#linearGradient3789);fill-opacity:1;stroke:none;stroke-width:15;marker:none;visibility:visible;display:inline;overflow:visible;enable-background:accumulate" />
  <path
     d="M 63.067057,367.67355 180.69991,350.95715 70.053935,357.37703"
     id="path3791"
     style="color:#000000;fill:url(#linearGradient3793);fill-opacity:1;stroke:none;stroke-width:15;marker:none;visibility:visible;display:inline;overflow:visible;enable-background:accumulate" />
  <path
     d="M 377.12755,79.077921 453.05092,88.447284 382.9221,69.079969"
     id="path3795"
     style="color:#000000;fill:url(#linearGradient3797);fill-opacity:1;stroke:none;stroke-width:15;marker:none;visibility:visible;display:inline;overflow:visible;enable-background:accumulate" />
  <path
     d="m 328.25515,91.675567 -28.7032,-37.105062 15.85797,39.14342"
     id="path3879"
     style="color:#000000;fill:url(#linearGradient3881);fill-opacity:1;stroke:none;stroke-width:15;marker:none;visibility:visible;display:inline;overflow:visible;enable-background:accumulate" />
  <path
     d="M 358.45631,76.89662 335.50669,44.804915 346.24827,83.600556"
     id="path3883"
     style="color:#000000;fill:url(#linearGradient3885);fill-opacity:1;stroke:none;stroke-width:15;marker:none;visibility:visible;display:inline;overflow:visible;enable-background:accumulate" />
  <path
     d="m 291.82837,110.25179 -24.1713,-41.384087 12.11815,45.881507"
     id="path3887"
     style="color:#000000;fill:url(#linearGradient3889);fill-opacity:1;stroke:none;stroke-width:15;marker:none;visibility:visible;display:inline;overflow:visible;enable-background:accumulate" />
  <path
     d="M 258.539,130.69758 238.82419,96.3303 249.60905,137.16373"
     id="path3891"
     style="color:#000000;fill:url(#linearGradient3893);fill-opacity:1;stroke:none;stroke-width:15;marker:none;visibility:visible;display:inline;overflow:visible;enable-background:accumulate" />
  <path
     d="m 229.20006,152.54452 -15.84653,-31.34711 4.43463,42.00019"
     id="path3895"
     style="color:#000000;fill:url(#linearGradient3897);fill-opacity:1;stroke:none;stroke-width:15;marker:none;visibility:visible;display:inline;overflow:visible;enable-background:accumulate" />
  <path
     d="m 200.41254,180.96411 -21.73404,-28.30959 7.25121,41.33824"
     id="path3899"
     style="color:#000000;fill:url(#linearGradient3931);fill-opacity:1;stroke:none;stroke-width:15;marker:none;visibility:visible;display:inline;overflow:visible;enable-background:accumulate" />
  <path
     d="M 12.620192,476.27404 40.54257,421.89348 C 82.048684,298.57062 220.24042,162.72046 311.26295,110.2074 352.5764,86.372689 394.64311,78.704862 456.1351,5.2273665 348.50358,94.035131 345.71368,77.741831 313.042,95.623687 218.99014,147.10013 29.429686,314.67462 12.620192,476.27404 z"
     id="path3739"
     style="color:#000000;fill:url(#linearGradient3813);fill-opacity:1;stroke:#000000;stroke-width:4;stroke-linecap:butt;stroke-linejoin:miter;stroke-miterlimit:4;stroke-opacity:1;stroke-dasharray:none;stroke-dashoffset:0;marker:none;visibility:visible;display:inline;overflow:visible;enable-background:accumulate" />
</svg>
